HIERARCHY
ROOT Hips
{
    OFFSET 0.000000 0.000000 0.000000
    CHANNELS 6 Xposition Yposition Zposition Zrotation Xrotation Yrotation
    JOINT Spine
    {
        OFFSET -0.000000 0.079523 0.000000
        CHANNELS 3 Zrotation Xrotation Yrotation
        JOINT Spine1
        {
            OFFSET -0.000000 0.192445 0.000000
            CHANNELS 3 Zrotation Xrotation Yrotation
            JOINT Neck
            {
                OFFSET -0.000000 0.191655 0.017423
                CHANNELS 3 Zrotation Xrotation Yrotation
                JOINT Head
                {
                    OFFSET -0.000000 0.135771 -0.019396
                    CHANNELS 3 Zrotation Xrotation Yrotation
                    End Site
                    {
                        OFFSET -0.000000 0.242449 0.000000
                    }
                }
            }
            JOINT LeftShoulder
            {
                OFFSET 0.039141 0.175231 -0.001157
                CHANNELS 3 Zrotation Xrotation Yrotation
                JOINT LeftArm
                {
                    OFFSET 0.104248 0.000000 0.000000
                    CHANNELS 3 Zrotation Xrotation Yrotation
                    JOINT LeftForeArm
                    {
                        OFFSET 0.307569 0.000000 0.000000
                        CHANNELS 3 Zrotation Xrotation Yrotation
                        JOINT LeftHand
                        {
                            OFFSET 0.230447 0.000000 0.000000
                            CHANNELS 3 Zrotation Xrotation Yrotation
                            End Site
                            {
                                OFFSET 0.145469 0.000000 0.000000
                            }
                        }
                    }
                }
            }
            JOINT RightShoulder
            {
                OFFSET -0.038425 0.175231 -0.001157
                CHANNELS 3 Zrotation Xrotation Yrotation
                JOINT RightArm
                {
                    OFFSET -0.104248 0.000000 0.000000
                    CHANNELS 3 Zrotation Xrotation Yrotation
                    JOINT RightForeArm
                    {
                        OFFSET -0.307569 0.000000 0.000000
                        CHANNELS 3 Zrotation Xrotation Yrotation
                        JOINT RightHand
                        {
                            OFFSET -0.230447 0.000000 0.000000
                            CHANNELS 3 Zrotation Xrotation Yrotation
                            End Site
                            {
                                OFFSET -0.145469 0.000000 0.000000
                            }
                        }
                    }
                }
            }
        }
    }
    JOINT LeftUpLeg
    {
        OFFSET 0.096979 0.000000 0.000000
        CHANNELS 3 Zrotation Xrotation Yrotation
        JOINT LeftLeg
        {
            OFFSET -0.000000 -0.427459 0.000000
            CHANNELS 3 Zrotation Xrotation Yrotation
            JOINT LeftFoot
            {
                OFFSET -0.000000 -0.447558 0.000000
                CHANNELS 3 Zrotation Xrotation Yrotation
                JOINT LeftToeBase
                {
                    OFFSET -0.000000 -0.063037 0.145469
                    CHANNELS 3 Zrotation Xrotation Yrotation
                    End Site
                    {
                        OFFSET -0.000000 0.000000 0.038792
                    }
                }
            }
        }
    }
    JOINT RightUpLeg
    {
        OFFSET -0.096979 0.000000 0.000000
        CHANNELS 3 Zrotation Xrotation Yrotation
        JOINT RightLeg
        {
            OFFSET -0.000000 -0.427459 0.000000
            CHANNELS 3 Zrotation Xrotation Yrotation
            JOINT RightFoot
            {
                OFFSET -0.000000 -0.447558 0.000000
                CHANNELS 3 Zrotation Xrotation Yrotation
                JOINT RightToeBase
                {
                    OFFSET -0.000000 -0.063037 0.145469
                    CHANNELS 3 Zrotation Xrotation Yrotation
                    End Site
                    {
                        OFFSET -0.000000 0.000000 0.038792
                    }
                }
            }
        }
    }
}
MOTION
Frames:    5
Frame Time:    0.008333
1.801547    0.898360    -0.770726    -6.891596    4.292954    -6.490258    -0.023179    -3.933634    -0.018483    6.800887    2.929222    11.291041    -8.903774    20.816511    0.374034    8.872098    -24.854164    -16.613400    4.026996    2.560518    -7.718990    -1.495176    0.008742    -0.669902    -37.559578    5.420665    -15.851585    14.371483    7.416037    15.189305    -17.868998    -1.713895    7.916268    21.214043    -4.309529    -10.309156    -2.719617    -0.256362    10.767982    -2.457241    10.213925    -2.639517    7.608372    -2.514253    4.921777    -0.999188    5.699876    -2.945209    -6.045230    -11.099515    -1.997755    0.000000    0.000000    0.000000    0.370569    -6.815965    15.533357    5.788508    11.565593    2.905128    6.534832    -12.503725    -20.180161    0.000000    0.000000    0.000000    
1.800846    0.898795    -0.771338    -6.916004    4.449181    -6.457039    -0.091214    -4.183696    -0.020127    6.879719    3.056816    11.256432    -9.978426    21.112419    0.446985    11.136470    -24.799246    -17.156679    4.026793    2.551707    -7.989234    -2.706341    0.028589    -1.207209    -35.827122    4.893328    -15.059733    13.863839    7.239784    15.003703    -17.753229    -1.782304    8.016612    21.200525    -4.463096    -10.544554    -2.485410    -0.228144    10.488194    -2.507470    10.520524    -2.322428    7.676451    -2.724238    4.780296    -0.978959    5.736352    -3.235062    -6.048157    -11.023302    -1.517183    0.000000    0.000000    0.000000    0.272592    -6.954124    15.424216    5.811450    11.577167    2.781721    6.626943    -12.516931    -20.030369    0.000000    0.000000    0.000000    
1.800041    0.899043    -0.771605    -6.987770    4.455851    -6.533628    -0.109868    -4.196524    -0.020464    6.963379    3.094317    11.316750    -10.085439    21.056879    0.446544    11.535580    -24.958719    -16.631361    3.954511    2.532438    -8.111799    -3.705432    0.053514    -1.651141    -34.409225    4.530756    -14.560948    13.489886    7.165672    14.976372    -17.677380    -1.846241    8.005041    21.232718    -4.617568    -10.661458    -2.161650    -0.194783    10.297742    -2.620332    10.620758    -2.360985    7.795417    -2.674764    4.628125    -0.964120    5.630801    -2.308292    -6.265125    -10.836408    -2.256074    0.000000    0.000000    0.000000    0.221328    -7.014314    15.342612    5.928670    11.743218    1.080828    7.032629    -12.380502    -18.508257    0.000000    0.000000    0.000000    
1.799429    0.899031    -0.771831    -7.102970    4.321271    -6.768220    0.052229    -3.983252    -0.014795    6.907565    3.055284    11.561344    -10.123431    21.021372    0.444850    11.545121    -25.105352    -16.368916    3.820416    2.517417    -8.269074    -4.554039    0.080763    -2.027753    -33.206474    4.222573    -14.096146    13.228642    7.125539    14.971807    -17.669455    -1.856828    7.974943    21.326031    -4.961015    -10.740911    -1.918131    -0.169411    10.094591    -2.420062    11.249486    -2.373841    7.927484    -2.469709    4.800208    -0.932152    5.606063    -2.225687    -6.325922    -10.902649    -2.308116    0.000000    0.000000    0.000000    0.164533    -6.918275    15.367459    6.004318    11.869063    0.883883    7.733936    -12.879788    -18.256744    0.000000    0.000000    0.000000    
1.798705    0.899250    -0.772226    -7.151558    4.366986    -6.921865    0.105140    -4.024659    -0.013076    6.932348    3.086002    11.681266    -10.212953    21.081758    0.454598    11.673849    -25.165688    -16.504877    3.653663    2.496306    -8.418910    -5.283149    0.108626    -2.350359    -32.281952    3.985148    -13.709402    13.137838    7.099555    15.036537    -17.617235    -1.918238    7.991532    21.380360    -5.093540    -10.901424    -1.810647    -0.157788    9.960144    -1.810501    12.040168    -2.385676    7.992397    -2.415927    4.670776    -0.869488    5.437941    -1.678210    -6.499360    -10.774618    -2.619427    0.000000    0.000000    0.000000    0.027617    -6.995224    15.472302    6.213597    11.989150    0.554360    7.797482    -12.941318    -18.340303    0.000000    0.000000    0.000000    
